solid OpenSCAD_Model
  facet normal 1 0 0
    outer loop
      vertex -45.05 7.2 16.5
      vertex -45.05 -7.2 16.5
      vertex -45.05 7.2 11.7
    endloop
  endfacet
  facet normal 1 -0 0
    outer loop
      vertex -45.05 7.2 11.7
      vertex -45.05 13 11.5101
      vertex -45.05 12.8947 11.7
    endloop
  endfacet
  facet normal 1 0 0
    outer loop
      vertex -45.05 13 11.5101
      vertex -45.05 7.2 11.7
      vertex -45.05 13 2.10942e-016
    endloop
  endfacet
  facet normal 1 0 0
    outer loop
      vertex -45.05 -7.2 11.7
      vertex -45.05 7.2 11.7
      vertex -45.05 -7.2 16.5
    endloop
  endfacet
  facet normal 1 0 0
    outer loop
      vertex -45.05 7.2 11.7
      vertex -45.05 -7.2 11.7
      vertex -45.05 13 2.10942e-016
    endloop
  endfacet
  facet normal 1 0 0
    outer loop
      vertex -45.05 -13 11.5101
      vertex -45.05 -7.2 11.7
      vertex -45.05 -12.8947 11.7
    endloop
  endfacet
  facet normal 1 0 0
    outer loop
      vertex -45.05 -7.2 11.7
      vertex -45.05 -13 11.5101
      vertex -45.05 -13 2.10942e-016
    endloop
  endfacet
  facet normal 1 0 0
    outer loop
      vertex -45.05 -7.2 11.7
      vertex -45.05 -13 2.10942e-016
      vertex -45.05 13 2.10942e-016
    endloop
  endfacet
  facet normal 0 1 -0
    outer loop
      vertex -46.15 14.1 -3.33067e-017
      vertex -49.9 14.1 9.52567
      vertex -46.15 14.1 9.52567
    endloop
  endfacet
  facet normal 0 1 0
    outer loop
      vertex -49.9 14.1 9.52567
      vertex -46.15 14.1 -3.33067e-017
      vertex -49.9 14.1 -8.65974e-016
    endloop
  endfacet
  facet normal -0 0 1
    outer loop
      vertex -50.35 9.5 22
      vertex -49.05 -9.5 22
      vertex -49.05 9.5 22
    endloop
  endfacet
  facet normal 0 0 1
    outer loop
      vertex -49.05 -9.5 22
      vertex -50.35 9.5 22
      vertex -50.35 -9.5 22
    endloop
  endfacet
  facet normal -1 0 0
    outer loop
      vertex -50.35 -7.5 10.75
      vertex -50.35 7.5 15.75
      vertex -50.35 7.5 10.75
    endloop
  endfacet
  facet normal -1 -0 0
    outer loop
      vertex -50.35 7.5 15.75
      vertex -50.35 -7.5 10.75
      vertex -50.35 -7.5 15.75
    endloop
  endfacet
  facet normal -1 0 0
    outer loop
      vertex -50.35 7.5 7.75
      vertex -50.35 13.65 10.3375
      vertex -50.35 13.65 -9.65894e-016
    endloop
  endfacet
  facet normal -1 0 -0
    outer loop
      vertex -50.35 11 11.7
      vertex -50.35 13.65 10.3375
      vertex -50.35 7.5 7.75
    endloop
  endfacet
  facet normal -1 0 0
    outer loop
      vertex -50.35 7.5 15.75
      vertex -50.35 11 20.5
      vertex -50.35 11 11.7
    endloop
  endfacet
  facet normal -1 0 0
    outer loop
      vertex -50.35 7.5 10.75
      vertex -50.35 11 11.7
      vertex -50.35 7.5 7.75
    endloop
  endfacet
  facet normal -1 0 0
    outer loop
      vertex -50.35 13.65 10.3375
      vertex -50.35 11 11.7
      vertex -50.35 12.8947 11.7
    endloop
  endfacet
  facet normal -1 0 0
    outer loop
      vertex -50.35 13.65 -9.65894e-016
      vertex -50.35 -7.5 7.75
      vertex -50.35 7.5 7.75
    endloop
  endfacet
  facet normal -1 0 0
    outer loop
      vertex -50.35 -11 11.7
      vertex -50.35 -7.5 10.75
      vertex -50.35 -7.5 7.75
    endloop
  endfacet
  facet normal -1 0 0
    outer loop
      vertex -50.35 -7.5 10.75
      vertex -50.35 -11 11.7
      vertex -50.35 -7.5 15.75
    endloop
  endfacet
  facet normal -1 0 0
    outer loop
      vertex -50.35 -11 20.5
      vertex -50.35 -7.5 15.75
      vertex -50.35 -11 11.7
    endloop
  endfacet
  facet normal -1 0 0
    outer loop
      vertex -50.35 -7.5 15.75
      vertex -50.35 -11 20.5
      vertex -50.35 -7.5 18.75
    endloop
  endfacet
  facet normal -1 0 0
    outer loop
      vertex -50.35 -13.65 10.3375
      vertex -50.35 -11 11.7
      vertex -50.35 -7.5 7.75
    endloop
  endfacet
  facet normal -1 0 0
    outer loop
      vertex -50.35 -13.65 -9.65894e-016
      vertex -50.35 -7.5 7.75
      vertex -50.35 13.65 -9.65894e-016
    endloop
  endfacet
  facet normal -1 0 0
    outer loop
      vertex -50.35 -13.65 10.3375
      vertex -50.35 -7.5 7.75
      vertex -50.35 -13.65 -9.65894e-016
    endloop
  endfacet
  facet normal -1 -0 0
    outer loop
      vertex -50.35 -11 11.7
      vertex -50.35 -13.65 10.3375
      vertex -50.35 -12.8947 11.7
    endloop
  endfacet
  facet normal -1 0 0
    outer loop
      vertex -50.35 7.5 15.75
      vertex -50.35 11 11.7
      vertex -50.35 7.5 10.75
    endloop
  endfacet
  facet normal -1 0 0
    outer loop
      vertex -50.35 11 20.5
      vertex -50.35 7.5 15.75
      vertex -50.35 7.5 18.75
    endloop
  endfacet
  facet normal -1 -0 0
    outer loop
      vertex -50.35 11 20.5
      vertex -50.35 7.5 18.75
      vertex -50.35 9.5 22
    endloop
  endfacet
  facet normal -1 0 0
    outer loop
      vertex -50.35 -7.5 18.75
      vertex -50.35 9.5 22
      vertex -50.35 7.5 18.75
    endloop
  endfacet
  facet normal -1 -0 0
    outer loop
      vertex -50.35 9.5 22
      vertex -50.35 -7.5 18.75
      vertex -50.35 -9.5 22
    endloop
  endfacet
  facet normal -1 0 0
    outer loop
      vertex -50.35 -7.5 18.75
      vertex -50.35 -11 20.5
      vertex -50.35 -9.5 22
    endloop
  endfacet
  facet normal 2.22045e-016 0 -1
    outer loop
      vertex -49.55 6.2 -7.88258e-016
      vertex -45.85 6.8 3.33066e-017
      vertex -45.85 6.2 3.33066e-017
    endloop
  endfacet
  facet normal 2.22045e-016 0 -1
    outer loop
      vertex -45.85 6.8 3.33066e-017
      vertex -49.55 6.2 -7.88258e-016
      vertex -49.55 6.8 -7.88258e-016
    endloop
  endfacet
  facet normal 2.22045e-016 0 -1
    outer loop
      vertex -49.55 -6.8 -7.88258e-016
      vertex -45.85 -6.2 3.33066e-017
      vertex -45.85 -6.8 3.33066e-017
    endloop
  endfacet
  facet normal 2.22045e-016 0 -1
    outer loop
      vertex -45.85 -6.2 3.33066e-017
      vertex -49.55 -6.8 -7.88258e-016
      vertex -49.55 -6.2 -7.88258e-016
    endloop
  endfacet
  facet normal 2.22045e-016 0 -1
    outer loop
      vertex -45.85 -6.8 3.33066e-017
      vertex -45.05 -13 2.10942e-016
      vertex -45.85 -13 3.33066e-017
    endloop
  endfacet
  facet normal 2.22045e-016 -6.96713e-022 -1
    outer loop
      vertex -46.15 -14.1 -3.33067e-017
      vertex -45.85 -13 3.33066e-017
      vertex -45.05 -13 2.10942e-016
    endloop
  endfacet
  facet normal 2.22045e-016 -6.09309e-022 -1
    outer loop
      vertex -46.15 -14.1 -3.33067e-017
      vertex -49.55 -13 -7.88258e-016
      vertex -45.85 -13 3.33066e-017
    endloop
  endfacet
  facet normal 2.22045e-016 0 -1
    outer loop
      vertex -50.35 -13.65 -9.65894e-016
      vertex -49.55 -6.8 -7.88258e-016
      vertex -49.55 -13 -7.88258e-016
    endloop
  endfacet
  facet normal 2.22045e-016 0 -1
    outer loop
      vertex -49.55 -6.8 -7.88258e-016
      vertex -50.35 -13.65 -9.65894e-016
      vertex -49.55 -6.2 -7.88258e-016
    endloop
  endfacet
  facet normal 2.22045e-016 0 -1
    outer loop
      vertex -49.55 -6.2 -7.88258e-016
      vertex -50.35 -13.65 -9.65894e-016
      vertex -49.55 6.2 -7.88258e-016
    endloop
  endfacet
  facet normal 2.22045e-016 0 -1
    outer loop
      vertex -50.35 13.65 -9.65894e-016
      vertex -49.55 6.2 -7.88258e-016
      vertex -50.35 -13.65 -9.65894e-016
    endloop
  endfacet
  facet normal 2.22045e-016 -5.47653e-022 -1
    outer loop
      vertex -50.35 -13.65 -9.65894e-016
      vertex -49.55 -13 -7.88258e-016
      vertex -49.9 -14.1 -8.65974e-016
    endloop
  endfacet
  facet normal 2.22045e-016 -3.88665e-022 -1
    outer loop
      vertex -49.9 -14.1 -8.65974e-016
      vertex -49.55 -13 -7.88258e-016
      vertex -46.15 -14.1 -3.33067e-017
    endloop
  endfacet
  facet normal 2.22045e-016 0 -1
    outer loop
      vertex -45.85 -6.2 3.33066e-017
      vertex -45.05 -13 2.10942e-016
      vertex -45.85 -6.8 3.33066e-017
    endloop
  endfacet
  facet normal 2.22045e-016 0 -1
    outer loop
      vertex -45.05 -13 2.10942e-016
      vertex -45.85 -6.2 3.33066e-017
      vertex -45.05 13 2.10942e-016
    endloop
  endfacet
  facet normal 2.22045e-016 0 -1
    outer loop
      vertex -45.85 6.2 3.33066e-017
      vertex -45.05 13 2.10942e-016
      vertex -45.85 -6.2 3.33066e-017
    endloop
  endfacet
  facet normal 2.22045e-016 0 -1
    outer loop
      vertex -45.85 6.8 3.33066e-017
      vertex -45.05 13 2.10942e-016
      vertex -45.85 6.2 3.33066e-017
    endloop
  endfacet
  facet normal 2.22045e-016 0 -1
    outer loop
      vertex -45.85 13 3.33066e-017
      vertex -45.05 13 2.10942e-016
      vertex -45.85 6.8 3.33066e-017
    endloop
  endfacet
  facet normal 2.22045e-016 6.96713e-022 -1
    outer loop
      vertex -45.85 13 3.33066e-017
      vertex -46.15 14.1 -3.33067e-017
      vertex -45.05 13 2.10942e-016
    endloop
  endfacet
  facet normal 2.22045e-016 6.09309e-022 -1
    outer loop
      vertex -49.55 13 -7.88258e-016
      vertex -46.15 14.1 -3.33067e-017
      vertex -45.85 13 3.33066e-017
    endloop
  endfacet
  facet normal 2.22045e-016 3.88665e-022 -1
    outer loop
      vertex -49.55 13 -7.88258e-016
      vertex -49.9 14.1 -8.65974e-016
      vertex -46.15 14.1 -3.33067e-017
    endloop
  endfacet
  facet normal 2.22045e-016 0 -1
    outer loop
      vertex -49.55 6.2 -7.88258e-016
      vertex -50.35 13.65 -9.65894e-016
      vertex -49.55 6.8 -7.88258e-016
    endloop
  endfacet
  facet normal 2.22045e-016 0 -1
    outer loop
      vertex -49.55 6.8 -7.88258e-016
      vertex -50.35 13.65 -9.65894e-016
      vertex -49.55 13 -7.88258e-016
    endloop
  endfacet
  facet normal 2.22045e-016 5.47653e-022 -1
    outer loop
      vertex -49.55 13 -7.88258e-016
      vertex -50.35 13.65 -9.65894e-016
      vertex -49.9 14.1 -8.65974e-016
    endloop
  endfacet
  facet normal -1 0 0
    outer loop
      vertex -46.35 -5.8 3
      vertex -46.35 5.8 16.5
      vertex -46.35 5.8 3
    endloop
  endfacet
  facet normal -1 -0 0
    outer loop
      vertex -46.35 5.8 16.5
      vertex -46.35 -5.8 3
      vertex -46.35 -5.8 16.5
    endloop
  endfacet
  facet normal 0 -1 0
    outer loop
      vertex -49.05 5.8 3
      vertex -46.35 5.8 16.5
      vertex -49.05 5.8 16.5
    endloop
  endfacet
  facet normal 0 -1 -0
    outer loop
      vertex -46.35 5.8 16.5
      vertex -49.05 5.8 3
      vertex -46.35 5.8 3
    endloop
  endfacet
  facet normal 1 0 0
    outer loop
      vertex -49.05 7.2 16.5
      vertex -49.05 11 20.5
      vertex -49.05 9.5 22
    endloop
  endfacet
  facet normal 1 -0 0
    outer loop
      vertex -49.05 11 11.7
      vertex -49.05 12.4 3
      vertex -49.05 12.4 11.7
    endloop
  endfacet
  facet normal 1 0 0
    outer loop
      vertex -49.05 11 20.5
      vertex -49.05 7.2 16.5
      vertex -49.05 11 11.7
    endloop
  endfacet
  facet normal 1 0 0
    outer loop
      vertex -49.05 7.2 3
      vertex -49.05 11 11.7
      vertex -49.05 7.2 16.5
    endloop
  endfacet
  facet normal 1 0 0
    outer loop
      vertex -49.05 11 11.7
      vertex -49.05 7.2 3
      vertex -49.05 12.4 3
    endloop
  endfacet
  facet normal 1 0 0
    outer loop
      vertex -49.05 9.5 22
      vertex -49.05 5.8 16.5
      vertex -49.05 7.2 16.5
    endloop
  endfacet
  facet normal 1 0 0
    outer loop
      vertex -49.05 5.8 16.5
      vertex -49.05 -5.8 16.5
      vertex -49.05 5.8 3
    endloop
  endfacet
  facet normal 1 0 0
    outer loop
      vertex -49.05 9.5 22
      vertex -49.05 -5.8 16.5
      vertex -49.05 5.8 16.5
    endloop
  endfacet
  facet normal 1 -0 0
    outer loop
      vertex -49.05 -9.5 22
      vertex -49.05 -5.8 16.5
      vertex -49.05 9.5 22
    endloop
  endfacet
  facet normal 1 0 0
    outer loop
      vertex -49.05 -5.8 16.5
      vertex -49.05 -9.5 22
      vertex -49.05 -7.2 16.5
    endloop
  endfacet
  facet normal 1 -0 0
    outer loop
      vertex -49.05 -11 20.5
      vertex -49.05 -7.2 16.5
      vertex -49.05 -9.5 22
    endloop
  endfacet
  facet normal 1 0 0
    outer loop
      vertex -49.05 -7.2 16.5
      vertex -49.05 -11 20.5
      vertex -49.05 -11 11.7
    endloop
  endfacet
  facet normal 1 0 0
    outer loop
      vertex -49.05 -7.2 16.5
      vertex -49.05 -11 11.7
      vertex -49.05 -7.2 3
    endloop
  endfacet
  facet normal 1 0 0
    outer loop
      vertex -49.05 -12.4 3
      vertex -49.05 -11 11.7
      vertex -49.05 -12.4 11.7
    endloop
  endfacet
  facet normal 1 0 0
    outer loop
      vertex -49.05 -11 11.7
      vertex -49.05 -12.4 3
      vertex -49.05 -7.2 3
    endloop
  endfacet
  facet normal 1 0 0
    outer loop
      vertex -49.05 5.8 3
      vertex -49.05 -5.8 16.5
      vertex -49.05 -5.8 3
    endloop
  endfacet
  facet normal -1 0 0
    outer loop
      vertex -45.85 -6.2 3.33066e-017
      vertex -45.85 6.2 0.5
      vertex -45.85 6.2 3.33066e-017
    endloop
  endfacet
  facet normal -1 -0 0
    outer loop
      vertex -45.85 6.2 0.5
      vertex -45.85 -6.2 3.33066e-017
      vertex -45.85 -6.2 0.5
    endloop
  endfacet
  facet normal 0 -0.987441 -0.157991
    outer loop
      vertex -49.55 6.2 0.5
      vertex -46.35 5.8 3
      vertex -49.05 5.8 3
    endloop
  endfacet
  facet normal 0 -0.987441 -0.157991
    outer loop
      vertex -46.35 5.8 3
      vertex -49.55 6.2 0.5
      vertex -45.85 6.2 0.5
    endloop
  endfacet
  facet normal 1 -0 0
    outer loop
      vertex -49.55 -6.2 0.5
      vertex -49.55 6.2 -7.88258e-016
      vertex -49.55 6.2 0.5
    endloop
  endfacet
  facet normal 1 0 0
    outer loop
      vertex -49.55 6.2 -7.88258e-016
      vertex -49.55 -6.2 0.5
      vertex -49.55 -6.2 -7.88258e-016
    endloop
  endfacet
  facet normal 0 -1 0
    outer loop
      vertex -49.55 6.2 0.5
      vertex -45.85 6.2 3.33066e-017
      vertex -45.85 6.2 0.5
    endloop
  endfacet
  facet normal -0 -1 0
    outer loop
      vertex -45.85 6.2 3.33066e-017
      vertex -49.55 6.2 0.5
      vertex -49.55 6.2 -7.88258e-016
    endloop
  endfacet
  facet normal -0.980581 0 -0.196116
    outer loop
      vertex -45.85 6.2 0.5
      vertex -46.35 -5.8 3
      vertex -46.35 5.8 3
    endloop
  endfacet
  facet normal -0.980581 0 -0.196116
    outer loop
      vertex -46.35 -5.8 3
      vertex -45.85 6.2 0.5
      vertex -45.85 -6.2 0.5
    endloop
  endfacet
  facet normal 0.980581 0 -0.196116
    outer loop
      vertex -49.05 -5.8 3
      vertex -49.55 6.2 0.5
      vertex -49.05 5.8 3
    endloop
  endfacet
  facet normal 0.980581 0 -0.196116
    outer loop
      vertex -49.55 6.2 0.5
      vertex -49.05 -5.8 3
      vertex -49.55 -6.2 0.5
    endloop
  endfacet
  facet normal 0 1 0
    outer loop
      vertex -46.35 7.2 11.7
      vertex -45.05 7.2 16.5
      vertex -45.05 7.2 11.7
    endloop
  endfacet
  facet normal 0 1 0
    outer loop
      vertex -45.05 7.2 16.5
      vertex -46.35 7.2 11.7
      vertex -49.05 7.2 16.5
    endloop
  endfacet
  facet normal 0 1 0
    outer loop
      vertex -49.05 7.2 3
      vertex -46.35 7.2 11.7
      vertex -46.35 7.2 3
    endloop
  endfacet
  facet normal 0 1 0
    outer loop
      vertex -46.35 7.2 11.7
      vertex -49.05 7.2 3
      vertex -49.05 7.2 16.5
    endloop
  endfacet
  facet normal -1 0 0
    outer loop
      vertex -46.35 7.2 3
      vertex -46.35 12.4 11.7
      vertex -46.35 12.4 3
    endloop
  endfacet
  facet normal -1 -0 0
    outer loop
      vertex -46.35 12.4 11.7
      vertex -46.35 7.2 3
      vertex -46.35 7.2 11.7
    endloop
  endfacet
  facet normal 0 -1 0
    outer loop
      vertex -49.05 12.4 3
      vertex -46.35 12.4 11.7
      vertex -49.05 12.4 11.7
    endloop
  endfacet
  facet normal 0 -1 -0
    outer loop
      vertex -46.35 12.4 11.7
      vertex -49.05 12.4 3
      vertex -46.35 12.4 3
    endloop
  endfacet
  facet normal 0 1 -0
    outer loop
      vertex -45.85 6.8 3.33066e-017
      vertex -49.55 6.8 0.5
      vertex -45.85 6.8 0.5
    endloop
  endfacet
  facet normal 0 1 0
    outer loop
      vertex -49.55 6.8 0.5
      vertex -45.85 6.8 3.33066e-017
      vertex -49.55 6.8 -7.88258e-016
    endloop
  endfacet
  facet normal -1 0 0
    outer loop
      vertex -45.85 6.8 3.33066e-017
      vertex -45.85 13 0.5
      vertex -45.85 13 3.33066e-017
    endloop
  endfacet
  facet normal -1 -0 0
    outer loop
      vertex -45.85 13 0.5
      vertex -45.85 6.8 3.33066e-017
      vertex -45.85 6.8 0.5
    endloop
  endfacet
  facet normal 0 -0.972387 -0.233373
    outer loop
      vertex -49.55 13 0.5
      vertex -46.35 12.4 3
      vertex -49.05 12.4 3
    endloop
  endfacet
  facet normal 0 -0.972387 -0.233373
    outer loop
      vertex -46.35 12.4 3
      vertex -49.55 13 0.5
      vertex -45.85 13 0.5
    endloop
  endfacet
  facet normal -0.980581 0 -0.196116
    outer loop
      vertex -45.85 6.8 0.5
      vertex -46.35 12.4 3
      vertex -45.85 13 0.5
    endloop
  endfacet
  facet normal -0.980581 -0 -0.196116
    outer loop
      vertex -46.35 12.4 3
      vertex -45.85 6.8 0.5
      vertex -46.35 7.2 3
    endloop
  endfacet
  facet normal 1 -0 0
    outer loop
      vertex -49.55 6.8 0.5
      vertex -49.55 13 -7.88258e-016
      vertex -49.55 13 0.5
    endloop
  endfacet
  facet normal 1 0 0
    outer loop
      vertex -49.55 13 -7.88258e-016
      vertex -49.55 6.8 0.5
      vertex -49.55 6.8 -7.88258e-016
    endloop
  endfacet
  facet normal 0 -1 0
    outer loop
      vertex -49.55 13 0.5
      vertex -45.85 13 3.33066e-017
      vertex -45.85 13 0.5
    endloop
  endfacet
  facet normal -0 -1 0
    outer loop
      vertex -45.85 13 3.33066e-017
      vertex -49.55 13 0.5
      vertex -49.55 13 -7.88258e-016
    endloop
  endfacet
  facet normal 0 0.987441 -0.157991
    outer loop
      vertex -45.85 6.8 0.5
      vertex -49.05 7.2 3
      vertex -46.35 7.2 3
    endloop
  endfacet
  facet normal 0 0.987441 -0.157991
    outer loop
      vertex -49.05 7.2 3
      vertex -45.85 6.8 0.5
      vertex -49.55 6.8 0.5
    endloop
  endfacet
  facet normal 0.980581 0 -0.196116
    outer loop
      vertex -49.55 6.8 0.5
      vertex -49.05 12.4 3
      vertex -49.05 7.2 3
    endloop
  endfacet
  facet normal 0.980581 0 -0.196116
    outer loop
      vertex -49.05 12.4 3
      vertex -49.55 6.8 0.5
      vertex -49.55 13 0.5
    endloop
  endfacet
  facet normal 0 0 1
    outer loop
      vertex -45.05 12.8947 11.7
      vertex -46.35 12.4 11.7
      vertex -45.05 7.2 11.7
    endloop
  endfacet
  facet normal 0 0 1
    outer loop
      vertex -45.05 12.8947 11.7
      vertex -49.05 12.4 11.7
      vertex -46.35 12.4 11.7
    endloop
  endfacet
  facet normal -0 0 1
    outer loop
      vertex -50.35 12.8947 11.7
      vertex -49.05 12.4 11.7
      vertex -45.05 12.8947 11.7
    endloop
  endfacet
  facet normal 0 0 1
    outer loop
      vertex -50.35 11 11.7
      vertex -49.05 12.4 11.7
      vertex -50.35 12.8947 11.7
    endloop
  endfacet
  facet normal 0 0 1
    outer loop
      vertex -49.05 12.4 11.7
      vertex -50.35 11 11.7
      vertex -49.05 11 11.7
    endloop
  endfacet
  facet normal 0 0 1
    outer loop
      vertex -45.05 7.2 11.7
      vertex -46.35 12.4 11.7
      vertex -46.35 7.2 11.7
    endloop
  endfacet
  facet normal 0 1 -0
    outer loop
      vertex -49.05 11 11.7
      vertex -50.35 11 20.5
      vertex -49.05 11 20.5
    endloop
  endfacet
  facet normal 0 1 0
    outer loop
      vertex -50.35 11 20.5
      vertex -49.05 11 11.7
      vertex -50.35 11 11.7
    endloop
  endfacet
  facet normal 0 0 1
    outer loop
      vertex -45.05 7.2 16.5
      vertex -46.35 5.8 16.5
      vertex -45.05 -7.2 16.5
    endloop
  endfacet
  facet normal -0 0 1
    outer loop
      vertex -49.05 7.2 16.5
      vertex -46.35 5.8 16.5
      vertex -45.05 7.2 16.5
    endloop
  endfacet
  facet normal 0 0 1
    outer loop
      vertex -46.35 5.8 16.5
      vertex -49.05 7.2 16.5
      vertex -49.05 5.8 16.5
    endloop
  endfacet
  facet normal -0 0 1
    outer loop
      vertex -46.35 -5.8 16.5
      vertex -45.05 -7.2 16.5
      vertex -46.35 5.8 16.5
    endloop
  endfacet
  facet normal 0 0 1
    outer loop
      vertex -49.05 -7.2 16.5
      vertex -46.35 -5.8 16.5
      vertex -49.05 -5.8 16.5
    endloop
  endfacet
  facet normal 0 0 1
    outer loop
      vertex -46.35 -5.8 16.5
      vertex -49.05 -7.2 16.5
      vertex -45.05 -7.2 16.5
    endloop
  endfacet
  facet normal -7.0711e-006 0.874618 0.484812
    outer loop
      vertex -46.15 14.1 9.52567
      vertex -45.05 12.8947 11.7
      vertex -45.05 13 11.5101
    endloop
  endfacet
  facet normal 0 0.87462 0.48481
    outer loop
      vertex -45.05 12.8947 11.7
      vertex -46.15 14.1 9.52567
      vertex -50.35 12.8947 11.7
    endloop
  endfacet
  facet normal -0 0.87462 0.48481
    outer loop
      vertex -49.9 14.1 9.52567
      vertex -50.35 12.8947 11.7
      vertex -46.15 14.1 9.52567
    endloop
  endfacet
  facet normal 1.49857e-006 0.87462 0.48481
    outer loop
      vertex -50.35 12.8947 11.7
      vertex -49.9 14.1 9.52567
      vertex -50.35 13.65 10.3375
    endloop
  endfacet
  facet normal 0.707106 0.707108 -0
    outer loop
      vertex -45.05 13 2.10942e-016
      vertex -46.15 14.1 9.52567
      vertex -45.05 13 11.5101
    endloop
  endfacet
  facet normal 0.707106 0.707108 0
    outer loop
      vertex -46.15 14.1 9.52567
      vertex -45.05 13 2.10942e-016
      vertex -46.15 14.1 -3.33067e-017
    endloop
  endfacet
  facet normal -0.707108 0.707105 0
    outer loop
      vertex -50.35 13.65 -9.65894e-016
      vertex -49.9 14.1 9.52567
      vertex -49.9 14.1 -8.65974e-016
    endloop
  endfacet
  facet normal -0.707108 0.707105 0
    outer loop
      vertex -49.9 14.1 9.52567
      vertex -50.35 13.65 -9.65894e-016
      vertex -50.35 13.65 10.3375
    endloop
  endfacet
  facet normal -0 0.707107 0.707107
    outer loop
      vertex -50.35 11 20.5
      vertex -49.05 9.5 22
      vertex -49.05 11 20.5
    endloop
  endfacet
  facet normal 0 0.707107 0.707107
    outer loop
      vertex -49.05 9.5 22
      vertex -50.35 11 20.5
      vertex -50.35 9.5 22
    endloop
  endfacet
  facet normal 0 -1 0
    outer loop
      vertex -49.9 -14.1 9.52567
      vertex -46.15 -14.1 -3.33067e-017
      vertex -46.15 -14.1 9.52567
    endloop
  endfacet
  facet normal -0 -1 0
    outer loop
      vertex -46.15 -14.1 -3.33067e-017
      vertex -49.9 -14.1 9.52567
      vertex -49.9 -14.1 -8.65974e-016
    endloop
  endfacet
  facet normal 0 1 -0
    outer loop
      vertex -46.35 -5.8 3
      vertex -49.05 -5.8 16.5
      vertex -46.35 -5.8 16.5
    endloop
  endfacet
  facet normal 0 1 0
    outer loop
      vertex -49.05 -5.8 16.5
      vertex -46.35 -5.8 3
      vertex -49.05 -5.8 3
    endloop
  endfacet
  facet normal 0 0.987441 -0.157991
    outer loop
      vertex -45.85 -6.2 0.5
      vertex -49.05 -5.8 3
      vertex -46.35 -5.8 3
    endloop
  endfacet
  facet normal 0 0.987441 -0.157991
    outer loop
      vertex -49.05 -5.8 3
      vertex -45.85 -6.2 0.5
      vertex -49.55 -6.2 0.5
    endloop
  endfacet
  facet normal 0 1 -0
    outer loop
      vertex -45.85 -6.2 3.33066e-017
      vertex -49.55 -6.2 0.5
      vertex -45.85 -6.2 0.5
    endloop
  endfacet
  facet normal 0 1 0
    outer loop
      vertex -49.55 -6.2 0.5
      vertex -45.85 -6.2 3.33066e-017
      vertex -49.55 -6.2 -7.88258e-016
    endloop
  endfacet
  facet normal 0 -1 0
    outer loop
      vertex -49.05 -7.2 16.5
      vertex -46.35 -7.2 11.7
      vertex -45.05 -7.2 16.5
    endloop
  endfacet
  facet normal 0 -1 0
    outer loop
      vertex -49.05 -7.2 3
      vertex -46.35 -7.2 11.7
      vertex -49.05 -7.2 16.5
    endloop
  endfacet
  facet normal 0 -1 -0
    outer loop
      vertex -46.35 -7.2 11.7
      vertex -49.05 -7.2 3
      vertex -46.35 -7.2 3
    endloop
  endfacet
  facet normal 0 -1 -0
    outer loop
      vertex -45.05 -7.2 16.5
      vertex -46.35 -7.2 11.7
      vertex -45.05 -7.2 11.7
    endloop
  endfacet
  facet normal -1 0 0
    outer loop
      vertex -46.35 -12.4 3
      vertex -46.35 -7.2 11.7
      vertex -46.35 -7.2 3
    endloop
  endfacet
  facet normal -1 -0 0
    outer loop
      vertex -46.35 -7.2 11.7
      vertex -46.35 -12.4 3
      vertex -46.35 -12.4 11.7
    endloop
  endfacet
  facet normal 0 1 -0
    outer loop
      vertex -46.35 -12.4 3
      vertex -49.05 -12.4 11.7
      vertex -46.35 -12.4 11.7
    endloop
  endfacet
  facet normal 0 1 0
    outer loop
      vertex -49.05 -12.4 11.7
      vertex -46.35 -12.4 3
      vertex -49.05 -12.4 3
    endloop
  endfacet
  facet normal 0 -1 0
    outer loop
      vertex -49.55 -6.8 0.5
      vertex -45.85 -6.8 3.33066e-017
      vertex -45.85 -6.8 0.5
    endloop
  endfacet
  facet normal -0 -1 0
    outer loop
      vertex -45.85 -6.8 3.33066e-017
      vertex -49.55 -6.8 0.5
      vertex -49.55 -6.8 -7.88258e-016
    endloop
  endfacet
  facet normal -1 0 0
    outer loop
      vertex -45.85 -13 3.33066e-017
      vertex -45.85 -6.8 0.5
      vertex -45.85 -6.8 3.33066e-017
    endloop
  endfacet
  facet normal -1 -0 0
    outer loop
      vertex -45.85 -6.8 0.5
      vertex -45.85 -13 3.33066e-017
      vertex -45.85 -13 0.5
    endloop
  endfacet
  facet normal 0 0.972387 -0.233373
    outer loop
      vertex -45.85 -13 0.5
      vertex -49.05 -12.4 3
      vertex -46.35 -12.4 3
    endloop
  endfacet
  facet normal 0 0.972387 -0.233373
    outer loop
      vertex -49.05 -12.4 3
      vertex -45.85 -13 0.5
      vertex -49.55 -13 0.5
    endloop
  endfacet
  facet normal -0.980581 0 -0.196116
    outer loop
      vertex -45.85 -6.8 0.5
      vertex -46.35 -12.4 3
      vertex -46.35 -7.2 3
    endloop
  endfacet
  facet normal -0.980581 0 -0.196116
    outer loop
      vertex -46.35 -12.4 3
      vertex -45.85 -6.8 0.5
      vertex -45.85 -13 0.5
    endloop
  endfacet
  facet normal 1 -0 0
    outer loop
      vertex -49.55 -13 0.5
      vertex -49.55 -6.8 -7.88258e-016
      vertex -49.55 -6.8 0.5
    endloop
  endfacet
  facet normal 1 0 0
    outer loop
      vertex -49.55 -6.8 -7.88258e-016
      vertex -49.55 -13 0.5
      vertex -49.55 -13 -7.88258e-016
    endloop
  endfacet
  facet normal 0 1 -0
    outer loop
      vertex -45.85 -13 3.33066e-017
      vertex -49.55 -13 0.5
      vertex -45.85 -13 0.5
    endloop
  endfacet
  facet normal 0 1 0
    outer loop
      vertex -49.55 -13 0.5
      vertex -45.85 -13 3.33066e-017
      vertex -49.55 -13 -7.88258e-016
    endloop
  endfacet
  facet normal 0 -0.987441 -0.157991
    outer loop
      vertex -49.55 -6.8 0.5
      vertex -46.35 -7.2 3
      vertex -49.05 -7.2 3
    endloop
  endfacet
  facet normal 0 -0.987441 -0.157991
    outer loop
      vertex -46.35 -7.2 3
      vertex -49.55 -6.8 0.5
      vertex -45.85 -6.8 0.5
    endloop
  endfacet
  facet normal 0.980581 0 -0.196116
    outer loop
      vertex -49.05 -12.4 3
      vertex -49.55 -6.8 0.5
      vertex -49.05 -7.2 3
    endloop
  endfacet
  facet normal 0.980581 0 -0.196116
    outer loop
      vertex -49.55 -6.8 0.5
      vertex -49.05 -12.4 3
      vertex -49.55 -13 0.5
    endloop
  endfacet
  facet normal 0 0 1
    outer loop
      vertex -49.05 -11 11.7
      vertex -50.35 -11 11.7
      vertex -49.05 -12.4 11.7
    endloop
  endfacet
  facet normal 0 0 1
    outer loop
      vertex -46.35 -12.4 11.7
      vertex -45.05 -7.2 11.7
      vertex -46.35 -7.2 11.7
    endloop
  endfacet
  facet normal 0 0 1
    outer loop
      vertex -45.05 -7.2 11.7
      vertex -46.35 -12.4 11.7
      vertex -45.05 -12.8947 11.7
    endloop
  endfacet
  facet normal -0 0 1
    outer loop
      vertex -49.05 -12.4 11.7
      vertex -45.05 -12.8947 11.7
      vertex -46.35 -12.4 11.7
    endloop
  endfacet
  facet normal 0 0 1
    outer loop
      vertex -49.05 -12.4 11.7
      vertex -50.35 -12.8947 11.7
      vertex -45.05 -12.8947 11.7
    endloop
  endfacet
  facet normal 0 0 1
    outer loop
      vertex -50.35 -12.8947 11.7
      vertex -49.05 -12.4 11.7
      vertex -50.35 -11 11.7
    endloop
  endfacet
  facet normal 0 -1 0
    outer loop
      vertex -50.35 -11 11.7
      vertex -49.05 -11 20.5
      vertex -50.35 -11 20.5
    endloop
  endfacet
  facet normal 0 -1 -0
    outer loop
      vertex -49.05 -11 20.5
      vertex -50.35 -11 11.7
      vertex -49.05 -11 11.7
    endloop
  endfacet
  facet normal 0 -0.87462 0.48481
    outer loop
      vertex -46.15 -14.1 9.52567
      vertex -45.05 -12.8947 11.7
      vertex -50.35 -12.8947 11.7
    endloop
  endfacet
  facet normal 1.49857e-006 -0.87462 0.48481
    outer loop
      vertex -49.9 -14.1 9.52567
      vertex -50.35 -12.8947 11.7
      vertex -50.35 -13.65 10.3375
    endloop
  endfacet
  facet normal 0 -0.87462 0.48481
    outer loop
      vertex -50.35 -12.8947 11.7
      vertex -49.9 -14.1 9.52567
      vertex -46.15 -14.1 9.52567
    endloop
  endfacet
  facet normal -7.0711e-006 -0.874618 0.484812
    outer loop
      vertex -45.05 -12.8947 11.7
      vertex -46.15 -14.1 9.52567
      vertex -45.05 -13 11.5101
    endloop
  endfacet
  facet normal 0.707106 -0.707108 0
    outer loop
      vertex -46.15 -14.1 9.52567
      vertex -45.05 -13 2.10942e-016
      vertex -45.05 -13 11.5101
    endloop
  endfacet
  facet normal 0.707106 -0.707108 0
    outer loop
      vertex -45.05 -13 2.10942e-016
      vertex -46.15 -14.1 9.52567
      vertex -46.15 -14.1 -3.33067e-017
    endloop
  endfacet
  facet normal -0.707108 -0.707105 -0
    outer loop
      vertex -49.9 -14.1 9.52567
      vertex -50.35 -13.65 -9.65894e-016
      vertex -49.9 -14.1 -8.65974e-016
    endloop
  endfacet
  facet normal -0.707108 -0.707105 0
    outer loop
      vertex -50.35 -13.65 -9.65894e-016
      vertex -49.9 -14.1 9.52567
      vertex -50.35 -13.65 10.3375
    endloop
  endfacet
  facet normal 0 -0.707107 0.707107
    outer loop
      vertex -50.35 -9.5 22
      vertex -49.05 -11 20.5
      vertex -49.05 -9.5 22
    endloop
  endfacet
  facet normal 0 -0.707107 0.707107
    outer loop
      vertex -49.05 -11 20.5
      vertex -50.35 -9.5 22
      vertex -50.35 -11 20.5
    endloop
  endfacet
  facet normal 0 -1 0
    outer loop
      vertex -51 -7.5 7.75
      vertex -50.35 -7.5 10.75
      vertex -51 -7.5 10.75
    endloop
  endfacet
  facet normal 0 -1 -0
    outer loop
      vertex -50.35 -7.5 10.75
      vertex -51 -7.5 7.75
      vertex -50.35 -7.5 7.75
    endloop
  endfacet
  facet normal 0 1 -0
    outer loop
      vertex -50.35 7.5 7.75
      vertex -51 7.5 10.75
      vertex -50.35 7.5 10.75
    endloop
  endfacet
  facet normal 0 1 0
    outer loop
      vertex -51 7.5 10.75
      vertex -50.35 7.5 7.75
      vertex -51 7.5 7.75
    endloop
  endfacet
  facet normal -0 0 1
    outer loop
      vertex -51 7.5 10.75
      vertex -50.35 -7.5 10.75
      vertex -50.35 7.5 10.75
    endloop
  endfacet
  facet normal 0 0 1
    outer loop
      vertex -50.35 -7.5 10.75
      vertex -51 7.5 10.75
      vertex -51 -7.5 10.75
    endloop
  endfacet
  facet normal -1 0 0
    outer loop
      vertex -51 -7.5 7.75
      vertex -51 7.5 10.75
      vertex -51 7.5 7.75
    endloop
  endfacet
  facet normal -1 -0 0
    outer loop
      vertex -51 7.5 10.75
      vertex -51 -7.5 7.75
      vertex -51 -7.5 10.75
    endloop
  endfacet
  facet normal 0 0 -1
    outer loop
      vertex -51 -7.5 7.75
      vertex -50.35 7.5 7.75
      vertex -50.35 -7.5 7.75
    endloop
  endfacet
  facet normal -0 0 -1
    outer loop
      vertex -50.35 7.5 7.75
      vertex -51 -7.5 7.75
      vertex -51 7.5 7.75
    endloop
  endfacet
  facet normal 0 -1 0
    outer loop
      vertex -51 -7.5 15.75
      vertex -50.35 -7.5 18.75
      vertex -51 -7.5 18.75
    endloop
  endfacet
  facet normal 0 -1 -0
    outer loop
      vertex -50.35 -7.5 18.75
      vertex -51 -7.5 15.75
      vertex -50.35 -7.5 15.75
    endloop
  endfacet
  facet normal 0 1 -0
    outer loop
      vertex -50.35 7.5 15.75
      vertex -51 7.5 18.75
      vertex -50.35 7.5 18.75
    endloop
  endfacet
  facet normal 0 1 0
    outer loop
      vertex -51 7.5 18.75
      vertex -50.35 7.5 15.75
      vertex -51 7.5 15.75
    endloop
  endfacet
  facet normal -0 0 1
    outer loop
      vertex -51 7.5 18.75
      vertex -50.35 -7.5 18.75
      vertex -50.35 7.5 18.75
    endloop
  endfacet
  facet normal 0 0 1
    outer loop
      vertex -50.35 -7.5 18.75
      vertex -51 7.5 18.75
      vertex -51 -7.5 18.75
    endloop
  endfacet
  facet normal -1 0 0
    outer loop
      vertex -51 -7.5 15.75
      vertex -51 7.5 18.75
      vertex -51 7.5 15.75
    endloop
  endfacet
  facet normal -1 -0 0
    outer loop
      vertex -51 7.5 18.75
      vertex -51 -7.5 15.75
      vertex -51 -7.5 18.75
    endloop
  endfacet
  facet normal 0 0 -1
    outer loop
      vertex -51 -7.5 15.75
      vertex -50.35 7.5 15.75
      vertex -50.35 -7.5 15.75
    endloop
  endfacet
  facet normal -0 0 -1
    outer loop
      vertex -50.35 7.5 15.75
      vertex -51 -7.5 15.75
      vertex -51 7.5 15.75
    endloop
  endfacet
endsolid OpenSCAD_Model
