solid OpenSCAD_Model
  facet normal 0 -1 0
    outer loop
      vertex -44 10.5 0
      vertex -42.2685 10.5 2.1
      vertex -44 10.5 1.79469
    endloop
  endfacet
  facet normal 0 -1 -0
    outer loop
      vertex -42.2685 10.5 2.1
      vertex -44 10.5 0
      vertex -24.4284 10.5 0
    endloop
  endfacet
  facet normal 0 -1 0
    outer loop
      vertex -42.2685 10.5 2.1
      vertex -24.4284 10.5 0
      vertex -24.4284 10.5 2.1
    endloop
  endfacet
  facet normal 0 1 -0
    outer loop
      vertex -35 13.5 0
      vertex -42 13.5 2.1
      vertex -35 13.5 2.1
    endloop
  endfacet
  facet normal 0 1 0
    outer loop
      vertex -42 13.5 2.1
      vertex -35 13.5 0
      vertex -42 13.5 0
    endloop
  endfacet
  facet normal -1 0 0
    outer loop
      vertex -44 10.5 0
      vertex -44 12.3914 1.79469
      vertex -44 12.3914 0
    endloop
  endfacet
  facet normal -1 -0 0
    outer loop
      vertex -44 12.3914 1.79469
      vertex -44 10.5 0
      vertex -44 10.5 1.79469
    endloop
  endfacet
  facet normal 0 0 -1
    outer loop
      vertex -42 -13.5 0
      vertex -35 -13.4616 0
      vertex -35 -13.5 0
    endloop
  endfacet
  facet normal -0 0 -1
    outer loop
      vertex -35 -13.4616 0
      vertex -42 -13.5 0
      vertex -35.2424 -12.0868 0
    endloop
  endfacet
  facet normal 0 0 -1
    outer loop
      vertex -44 10.5 0
      vertex -35 12.0441 0
      vertex -24.4284 10.5 0
    endloop
  endfacet
  facet normal 0 0 -1
    outer loop
      vertex -44 10.5 0
      vertex -35.2424 12.0868 0
      vertex -35 12.0441 0
    endloop
  endfacet
  facet normal 0 0 -1
    outer loop
      vertex -44 10.5 0
      vertex -42 13.5 0
      vertex -35.2424 12.0868 0
    endloop
  endfacet
  facet normal 0 0 -1
    outer loop
      vertex -42 13.5 0
      vertex -44 10.5 0
      vertex -44 12.3914 0
    endloop
  endfacet
  facet normal 0 0 -1
    outer loop
      vertex -24.4284 10.5 0
      vertex -23 9.1 0
      vertex -23.0142 9.08579 0
    endloop
  endfacet
  facet normal 0 0 -1
    outer loop
      vertex -23 9.1 0
      vertex -24.4284 10.5 0
      vertex -23 12.1 0
    endloop
  endfacet
  facet normal 0 0 -1
    outer loop
      vertex -35 12.1 0
      vertex -24.4284 10.5 0
      vertex -35 12.0441 0
    endloop
  endfacet
  facet normal 0 0 -1
    outer loop
      vertex -24.4284 10.5 0
      vertex -35 12.1 0
      vertex -23 12.1 0
    endloop
  endfacet
  facet normal 0 0 -1
    outer loop
      vertex -40 -5.5 0
      vertex -23 5.5 0
      vertex -23 -5.5 0
    endloop
  endfacet
  facet normal 0 0 -1
    outer loop
      vertex -40 -5.5 0
      vertex -40 5.5 0
      vertex -23 5.5 0
    endloop
  endfacet
  facet normal 0 0 -1
    outer loop
      vertex -43.5 -4.2261 0
      vertex -40 5.5 0
      vertex -40 -5.5 0
    endloop
  endfacet
  facet normal 0 0 -1
    outer loop
      vertex -40 5.5 0
      vertex -43.5 -4.2261 0
      vertex -43.5 4.2261 0
    endloop
  endfacet
  facet normal 0 0 -1
    outer loop
      vertex -24.4284 -10.5 0
      vertex -23 -9.1 0
      vertex -23 -12.1 0
    endloop
  endfacet
  facet normal -0 0 -1
    outer loop
      vertex -23 -9.1 0
      vertex -24.4284 -10.5 0
      vertex -23.0142 -9.08579 0
    endloop
  endfacet
  facet normal 0 0 -1
    outer loop
      vertex -35 -12.1 0
      vertex -24.4284 -10.5 0
      vertex -23 -12.1 0
    endloop
  endfacet
  facet normal 0 0 -1
    outer loop
      vertex -35 -12.0441 0
      vertex -24.4284 -10.5 0
      vertex -35 -12.1 0
    endloop
  endfacet
  facet normal 0 0 -1
    outer loop
      vertex -44 -10.5 0
      vertex -42 -13.5 0
      vertex -44 -12.3914 0
    endloop
  endfacet
  facet normal 0 0 -1
    outer loop
      vertex -42 -13.5 0
      vertex -44 -10.5 0
      vertex -35.2424 -12.0868 0
    endloop
  endfacet
  facet normal 0 0 -1
    outer loop
      vertex -35.2424 -12.0868 0
      vertex -44 -10.5 0
      vertex -35 -12.0441 0
    endloop
  endfacet
  facet normal 0 0 -1
    outer loop
      vertex -35 -12.0441 0
      vertex -44 -10.5 0
      vertex -24.4284 -10.5 0
    endloop
  endfacet
  facet normal 0 0 -1
    outer loop
      vertex -15 -8.5 0
      vertex -10 -13.5 0
      vertex -10.6 -14.1 0
    endloop
  endfacet
  facet normal 0 0 -1
    outer loop
      vertex -10 -13.5 0
      vertex -15 -8.5 0
      vertex -10 -8.5 0
    endloop
  endfacet
  facet normal 0 0 -1
    outer loop
      vertex -23 -12.1 0
      vertex -15 -8.5 0
      vertex -23 -14.1 0
    endloop
  endfacet
  facet normal 0 0 -1
    outer loop
      vertex -23 -14.1 0
      vertex -15 -8.5 0
      vertex -10.6 -14.1 0
    endloop
  endfacet
  facet normal 0 0 -1
    outer loop
      vertex -15 8.5 0
      vertex -10 13.5 0
      vertex -10 8.5 0
    endloop
  endfacet
  facet normal -0 0 -1
    outer loop
      vertex -10 13.5 0
      vertex -15 8.5 0
      vertex -10.6 14.1 0
    endloop
  endfacet
  facet normal 0 0 -1
    outer loop
      vertex -23 -9.1 0
      vertex -15 -8.5 0
      vertex -23 -12.1 0
    endloop
  endfacet
  facet normal 0 0 -1
    outer loop
      vertex -23 -5.5 0
      vertex -15 -8.5 0
      vertex -23 -9.1 0
    endloop
  endfacet
  facet normal 0 0 -1
    outer loop
      vertex -15 -8.5 0
      vertex -23 -5.5 0
      vertex -15 8.5 0
    endloop
  endfacet
  facet normal 0 0 -1
    outer loop
      vertex -23 5.5 0
      vertex -15 8.5 0
      vertex -23 -5.5 0
    endloop
  endfacet
  facet normal 0 0 -1
    outer loop
      vertex -23 9.1 0
      vertex -15 8.5 0
      vertex -23 5.5 0
    endloop
  endfacet
  facet normal 0 0 -1
    outer loop
      vertex -23 12.1 0
      vertex -15 8.5 0
      vertex -23 9.1 0
    endloop
  endfacet
  facet normal 0 0 -1
    outer loop
      vertex -23 14.1 0
      vertex -15 8.5 0
      vertex -23 12.1 0
    endloop
  endfacet
  facet normal 0 0 -1
    outer loop
      vertex -15 8.5 0
      vertex -23 14.1 0
      vertex -10.6 14.1 0
    endloop
  endfacet
  facet normal 0 0 -1
    outer loop
      vertex -42 13.5 0
      vertex -35 13.4616 0
      vertex -35.2424 12.0868 0
    endloop
  endfacet
  facet normal 0 0 -1
    outer loop
      vertex -35 13.4616 0
      vertex -42 13.5 0
      vertex -35 13.5 0
    endloop
  endfacet
  facet normal -1 0 0
    outer loop
      vertex -35 12.0441 0
      vertex -35 12.1 2.1
      vertex -35 12.1 0
    endloop
  endfacet
  facet normal -1 -0 0
    outer loop
      vertex -35 12.1 2.1
      vertex -35 12.0441 0
      vertex -35 12.0441 2.1
    endloop
  endfacet
  facet normal 1 -0 0
    outer loop
      vertex -35 13.4616 2.1
      vertex -35 13.5 0
      vertex -35 13.5 2.1
    endloop
  endfacet
  facet normal 1 0 0
    outer loop
      vertex -35 13.5 0
      vertex -35 13.4616 2.1
      vertex -35 13.4616 0
    endloop
  endfacet
  facet normal -0.484812 0.874618 0
    outer loop
      vertex -42 13.5 0
      vertex -42.2685 13.3512 2.1
      vertex -42 13.5 2.1
    endloop
  endfacet
  facet normal -0.484809 0.87462 4.51275e-007
    outer loop
      vertex -42.2685 13.3512 2.1
      vertex -42 13.5 0
      vertex -44 12.3914 1.79469
    endloop
  endfacet
  facet normal -0.48481 0.87462 0
    outer loop
      vertex -44 12.3914 1.79469
      vertex -42 13.5 0
      vertex -44 12.3914 0
    endloop
  endfacet
  facet normal 0.173648 0.984808 -0
    outer loop
      vertex -35 12.0441 0
      vertex -35.2424 12.0868 2.1
      vertex -35 12.0441 2.1
    endloop
  endfacet
  facet normal 0.173648 0.984808 0
    outer loop
      vertex -35.2424 12.0868 2.1
      vertex -35 12.0441 0
      vertex -35.2424 12.0868 0
    endloop
  endfacet
  facet normal 0.984808 -0.173647 0
    outer loop
      vertex -35.2424 12.0868 2.1
      vertex -35 13.4616 0
      vertex -35 13.4616 2.1
    endloop
  endfacet
  facet normal 0.984808 -0.173647 0
    outer loop
      vertex -35 13.4616 0
      vertex -35.2424 12.0868 2.1
      vertex -35.2424 12.0868 0
    endloop
  endfacet
  facet normal 0 1 -0
    outer loop
      vertex -23 12.1 0
      vertex -35 12.1 2.1
      vertex -23 12.1 2.1
    endloop
  endfacet
  facet normal 0 1 0
    outer loop
      vertex -35 12.1 2.1
      vertex -23 12.1 0
      vertex -35 12.1 0
    endloop
  endfacet
  facet normal -1 0 0
    outer loop
      vertex -23 12.1 2.1
      vertex -23 14.1 3.7
      vertex -23 14.1 2.1
    endloop
  endfacet
  facet normal -1 0 0
    outer loop
      vertex -23 9.1 2.1
      vertex -23 14.1 3.7
      vertex -23 12.1 2.1
    endloop
  endfacet
  facet normal -1 0 0
    outer loop
      vertex -23 5.5 2.1
      vertex -23 14.1 3.7
      vertex -23 9.1 2.1
    endloop
  endfacet
  facet normal -1 0 0
    outer loop
      vertex -23 -5.5 2.1
      vertex -23 14.1 3.7
      vertex -23 5.5 2.1
    endloop
  endfacet
  facet normal -1 0 0
    outer loop
      vertex -23 -14.1 3.7
      vertex -23 -5.5 2.1
      vertex -23 -9.1 2.1
    endloop
  endfacet
  facet normal -1 0 0
    outer loop
      vertex -23 -14.1 3.7
      vertex -23 -9.1 2.1
      vertex -23 -12.1 2.1
    endloop
  endfacet
  facet normal -1 0 0
    outer loop
      vertex -23 -14.1 3.7
      vertex -23 -12.1 2.1
      vertex -23 -14.1 2.1
    endloop
  endfacet
  facet normal -1 0 0
    outer loop
      vertex -23 -5.5 2.1
      vertex -23 -14.1 3.7
      vertex -23 14.1 3.7
    endloop
  endfacet
  facet normal -1 0 0
    outer loop
      vertex -23 5.5 0
      vertex -23 9.1 2.1
      vertex -23 9.1 0
    endloop
  endfacet
  facet normal -1 -0 0
    outer loop
      vertex -23 9.1 2.1
      vertex -23 5.5 0
      vertex -23 5.5 2.1
    endloop
  endfacet
  facet normal -1 0 0
    outer loop
      vertex -23 12.1 0
      vertex -23 14.1 2.1
      vertex -23 14.1 0
    endloop
  endfacet
  facet normal -1 -0 0
    outer loop
      vertex -23 14.1 2.1
      vertex -23 12.1 0
      vertex -23 12.1 2.1
    endloop
  endfacet
  facet normal -0.707107 -0.707107 0
    outer loop
      vertex -23.0142 9.08579 0
      vertex -24.4284 10.5 2.1
      vertex -24.4284 10.5 0
    endloop
  endfacet
  facet normal -0.707107 -0.707107 0
    outer loop
      vertex -24.4284 10.5 2.1
      vertex -23.0142 9.08579 0
      vertex -23.0142 9.08579 2.1
    endloop
  endfacet
  facet normal 0.707107 -0.707107 0
    outer loop
      vertex -23.0142 9.08579 2.1
      vertex -23 9.1 0
      vertex -23 9.1 2.1
    endloop
  endfacet
  facet normal 0.707107 -0.707107 0
    outer loop
      vertex -23 9.1 0
      vertex -23.0142 9.08579 2.1
      vertex -23.0142 9.08579 0
    endloop
  endfacet
  facet normal 0 1 -0
    outer loop
      vertex -23 5.5 0
      vertex -40 5.5 2.1
      vertex -23 5.5 2.1
    endloop
  endfacet
  facet normal 0 1 0
    outer loop
      vertex -40 5.5 2.1
      vertex -23 5.5 0
      vertex -40 5.5 0
    endloop
  endfacet
  facet normal -1 0 0
    outer loop
      vertex -43.5 -4.2261 0
      vertex -43.5 4.2261 1.88286
      vertex -43.5 4.2261 0
    endloop
  endfacet
  facet normal -1 -0 0
    outer loop
      vertex -43.5 4.2261 1.88286
      vertex -43.5 -4.2261 0
      vertex -43.5 -4.2261 1.88286
    endloop
  endfacet
  facet normal -0.342021 0.939692 0
    outer loop
      vertex -40 5.5 0
      vertex -42.2685 4.67433 2.1
      vertex -40 5.5 2.1
    endloop
  endfacet
  facet normal -0.34202 0.939693 3.50738e-007
    outer loop
      vertex -43.5 4.2261 0
      vertex -42.2685 4.67433 2.1
      vertex -40 5.5 0
    endloop
  endfacet
  facet normal -0.34202 0.939693 0
    outer loop
      vertex -42.2685 4.67433 2.1
      vertex -43.5 4.2261 0
      vertex -43.5 4.2261 1.88286
    endloop
  endfacet
  facet normal 0 0 1
    outer loop
      vertex -15 8.5 3.7
      vertex -10 13.5 3.7
      vertex -10.6 14.1 3.7
    endloop
  endfacet
  facet normal 0 0 1
    outer loop
      vertex -10 13.5 3.7
      vertex -15 8.5 3.7
      vertex -10 8.5 3.7
    endloop
  endfacet
  facet normal 0 0 1
    outer loop
      vertex -15 8.5 3.7
      vertex -23 14.1 3.7
      vertex -15 -8.5 3.7
    endloop
  endfacet
  facet normal -0 0 1
    outer loop
      vertex -23 14.1 3.7
      vertex -15 8.5 3.7
      vertex -10.6 14.1 3.7
    endloop
  endfacet
  facet normal -0 0 1
    outer loop
      vertex -15 -8.5 3.7
      vertex -10 -13.5 3.7
      vertex -10 -8.5 3.7
    endloop
  endfacet
  facet normal 0 0 1
    outer loop
      vertex -10 -13.5 3.7
      vertex -15 -8.5 3.7
      vertex -10.6 -14.1 3.7
    endloop
  endfacet
  facet normal 0 0 1
    outer loop
      vertex -15 -8.5 3.7
      vertex -23 -14.1 3.7
      vertex -10.6 -14.1 3.7
    endloop
  endfacet
  facet normal 0 0 1
    outer loop
      vertex -23 -14.1 3.7
      vertex -15 -8.5 3.7
      vertex -23 14.1 3.7
    endloop
  endfacet
  facet normal 0 1 0
    outer loop
      vertex -12.6 14.1 2.1
      vertex -10.6 14.1 3.7
      vertex -11.4 14.1 2.1
    endloop
  endfacet
  facet normal 0 1 -0
    outer loop
      vertex -10.6 14.1 0
      vertex -11.4 14.1 2.1
      vertex -10.6 14.1 3.7
    endloop
  endfacet
  facet normal 0 1 0
    outer loop
      vertex -11.4 14.1 0.9
      vertex -10.6 14.1 0
      vertex -12.6 14.1 0.9
    endloop
  endfacet
  facet normal 0 1 0
    outer loop
      vertex -11.4 14.1 2.1
      vertex -10.6 14.1 0
      vertex -11.4 14.1 0.9
    endloop
  endfacet
  facet normal 0 1 0
    outer loop
      vertex -10.6 14.1 3.7
      vertex -12.6 14.1 2.1
      vertex -23 14.1 3.7
    endloop
  endfacet
  facet normal 0 1 0
    outer loop
      vertex -12.6 14.1 2.1
      vertex -23 14.1 2.1
      vertex -23 14.1 3.7
    endloop
  endfacet
  facet normal 0 1 -0
    outer loop
      vertex -12.6 14.1 0.9
      vertex -23 14.1 2.1
      vertex -12.6 14.1 2.1
    endloop
  endfacet
  facet normal 0 1 0
    outer loop
      vertex -23 14.1 0
      vertex -12.6 14.1 0.9
      vertex -10.6 14.1 0
    endloop
  endfacet
  facet normal 0 1 0
    outer loop
      vertex -12.6 14.1 0.9
      vertex -23 14.1 0
      vertex -23 14.1 2.1
    endloop
  endfacet
  facet normal 1 -0 0
    outer loop
      vertex -10 8.5 3.7
      vertex -10 13.5 0
      vertex -10 13.5 3.7
    endloop
  endfacet
  facet normal 1 0 0
    outer loop
      vertex -10 13.5 0
      vertex -10 8.5 3.7
      vertex -10 8.5 0
    endloop
  endfacet
  facet normal -0.173648 0 0.984808
    outer loop
      vertex -43.5 4.2261 1.88286
      vertex -42.2685 -4.67433 2.1
      vertex -42.2685 4.67433 2.1
    endloop
  endfacet
  facet normal -0.173648 0 0.984808
    outer loop
      vertex -42.2685 -4.67433 2.1
      vertex -43.5 4.2261 1.88286
      vertex -43.5 -4.2261 1.88286
    endloop
  endfacet
  facet normal -0.173648 0 0.984808
    outer loop
      vertex -44 12.3914 1.79469
      vertex -42.2685 10.5 2.1
      vertex -42.2685 13.3512 2.1
    endloop
  endfacet
  facet normal -0.173648 0 0.984808
    outer loop
      vertex -42.2685 10.5 2.1
      vertex -44 12.3914 1.79469
      vertex -44 10.5 1.79469
    endloop
  endfacet
  facet normal -0 0 1
    outer loop
      vertex -40 5.5 2.1
      vertex -23 -5.5 2.1
      vertex -23 5.5 2.1
    endloop
  endfacet
  facet normal 0 0 1
    outer loop
      vertex -40 5.5 2.1
      vertex -40 -5.5 2.1
      vertex -23 -5.5 2.1
    endloop
  endfacet
  facet normal -0 0 1
    outer loop
      vertex -42.2685 4.67433 2.1
      vertex -40 -5.5 2.1
      vertex -40 5.5 2.1
    endloop
  endfacet
  facet normal 0 0 1
    outer loop
      vertex -40 -5.5 2.1
      vertex -42.2685 4.67433 2.1
      vertex -42.2685 -4.67433 2.1
    endloop
  endfacet
  facet normal -0 0 1
    outer loop
      vertex -42 13.5 2.1
      vertex -35 13.4616 2.1
      vertex -35 13.5 2.1
    endloop
  endfacet
  facet normal 0 0 1
    outer loop
      vertex -35 13.4616 2.1
      vertex -42 13.5 2.1
      vertex -35.2424 12.0868 2.1
    endloop
  endfacet
  facet normal -0 0 1
    outer loop
      vertex -24.4284 10.5 2.1
      vertex -23 9.1 2.1
      vertex -23 12.1 2.1
    endloop
  endfacet
  facet normal 0 0 1
    outer loop
      vertex -23 9.1 2.1
      vertex -24.4284 10.5 2.1
      vertex -23.0142 9.08579 2.1
    endloop
  endfacet
  facet normal -0 0 1
    outer loop
      vertex -35 12.1 2.1
      vertex -24.4284 10.5 2.1
      vertex -23 12.1 2.1
    endloop
  endfacet
  facet normal -0 0 1
    outer loop
      vertex -35 12.0441 2.1
      vertex -24.4284 10.5 2.1
      vertex -35 12.1 2.1
    endloop
  endfacet
  facet normal 0 0 1
    outer loop
      vertex -42.2685 10.5 2.1
      vertex -42 13.5 2.1
      vertex -42.2685 13.3512 2.1
    endloop
  endfacet
  facet normal 0 0 1
    outer loop
      vertex -35 12.0441 2.1
      vertex -42.2685 10.5 2.1
      vertex -24.4284 10.5 2.1
    endloop
  endfacet
  facet normal 0 0 1
    outer loop
      vertex -35.2424 12.0868 2.1
      vertex -42.2685 10.5 2.1
      vertex -35 12.0441 2.1
    endloop
  endfacet
  facet normal 0 0 1
    outer loop
      vertex -42 13.5 2.1
      vertex -42.2685 10.5 2.1
      vertex -35.2424 12.0868 2.1
    endloop
  endfacet
  facet normal 0.707107 0.707107 0
    outer loop
      vertex -10 13.5 3.7
      vertex -10.6 14.1 0
      vertex -10.6 14.1 3.7
    endloop
  endfacet
  facet normal 0.707107 0.707107 0
    outer loop
      vertex -10.6 14.1 0
      vertex -10 13.5 3.7
      vertex -10 13.5 0
    endloop
  endfacet
  facet normal 0 -1 0
    outer loop
      vertex -15 8.5 3.7
      vertex -12.6 8.5 2.1
      vertex -10 8.5 3.7
    endloop
  endfacet
  facet normal 0 -1 0
    outer loop
      vertex -15 8.5 0
      vertex -12.6 8.5 2.1
      vertex -15 8.5 3.7
    endloop
  endfacet
  facet normal 0 -1 0
    outer loop
      vertex -10 8.5 0
      vertex -12.6 8.5 0.9
      vertex -15 8.5 0
    endloop
  endfacet
  facet normal 0 -1 -0
    outer loop
      vertex -12.6 8.5 2.1
      vertex -15 8.5 0
      vertex -12.6 8.5 0.9
    endloop
  endfacet
  facet normal 0 -1 0
    outer loop
      vertex -11.4 8.5 2.1
      vertex -10 8.5 3.7
      vertex -12.6 8.5 2.1
    endloop
  endfacet
  facet normal 0 -1 0
    outer loop
      vertex -10 8.5 0
      vertex -11.4 8.5 2.1
      vertex -11.4 8.5 0.9
    endloop
  endfacet
  facet normal 0 -1 0
    outer loop
      vertex -11.4 8.5 2.1
      vertex -10 8.5 0
      vertex -10 8.5 3.7
    endloop
  endfacet
  facet normal 0 -1 0
    outer loop
      vertex -12.6 8.5 0.9
      vertex -10 8.5 0
      vertex -11.4 8.5 0.9
    endloop
  endfacet
  facet normal 1 -0 0
    outer loop
      vertex -15 -8.5 3.7
      vertex -15 8.5 0
      vertex -15 8.5 3.7
    endloop
  endfacet
  facet normal 1 0 0
    outer loop
      vertex -15 8.5 0
      vertex -15 -8.5 3.7
      vertex -15 -8.5 0
    endloop
  endfacet
  facet normal 0 0 -1
    outer loop
      vertex -12.6 8.5 2.1
      vertex -11.4 14.1 2.1
      vertex -11.4 8.5 2.1
    endloop
  endfacet
  facet normal -0 0 -1
    outer loop
      vertex -11.4 14.1 2.1
      vertex -12.6 8.5 2.1
      vertex -12.6 14.1 2.1
    endloop
  endfacet
  facet normal 1 -0 0
    outer loop
      vertex -12.6 8.5 2.1
      vertex -12.6 14.1 0.9
      vertex -12.6 14.1 2.1
    endloop
  endfacet
  facet normal 1 0 0
    outer loop
      vertex -12.6 14.1 0.9
      vertex -12.6 8.5 2.1
      vertex -12.6 8.5 0.9
    endloop
  endfacet
  facet normal -0 0 1
    outer loop
      vertex -12.6 14.1 0.9
      vertex -11.4 8.5 0.9
      vertex -11.4 14.1 0.9
    endloop
  endfacet
  facet normal 0 0 1
    outer loop
      vertex -11.4 8.5 0.9
      vertex -12.6 14.1 0.9
      vertex -12.6 8.5 0.9
    endloop
  endfacet
  facet normal -1 0 0
    outer loop
      vertex -11.4 8.5 0.9
      vertex -11.4 14.1 2.1
      vertex -11.4 14.1 0.9
    endloop
  endfacet
  facet normal -1 -0 0
    outer loop
      vertex -11.4 14.1 2.1
      vertex -11.4 8.5 0.9
      vertex -11.4 8.5 2.1
    endloop
  endfacet
  facet normal 0 1 -0
    outer loop
      vertex -24.4284 -10.5 0
      vertex -42.2685 -10.5 2.1
      vertex -24.4284 -10.5 2.1
    endloop
  endfacet
  facet normal 0 1 0
    outer loop
      vertex -44 -10.5 0
      vertex -42.2685 -10.5 2.1
      vertex -24.4284 -10.5 0
    endloop
  endfacet
  facet normal 0 1 0
    outer loop
      vertex -42.2685 -10.5 2.1
      vertex -44 -10.5 0
      vertex -44 -10.5 1.79469
    endloop
  endfacet
  facet normal 0 -1 0
    outer loop
      vertex -42 -13.5 0
      vertex -35 -13.5 2.1
      vertex -42 -13.5 2.1
    endloop
  endfacet
  facet normal 0 -1 -0
    outer loop
      vertex -35 -13.5 2.1
      vertex -42 -13.5 0
      vertex -35 -13.5 0
    endloop
  endfacet
  facet normal -1 0 0
    outer loop
      vertex -44 -12.3914 0
      vertex -44 -10.5 1.79469
      vertex -44 -10.5 0
    endloop
  endfacet
  facet normal -1 -0 0
    outer loop
      vertex -44 -10.5 1.79469
      vertex -44 -12.3914 0
      vertex -44 -12.3914 1.79469
    endloop
  endfacet
  facet normal -1 0 0
    outer loop
      vertex -35 -12.1 0
      vertex -35 -12.0441 2.1
      vertex -35 -12.0441 0
    endloop
  endfacet
  facet normal -1 -0 0
    outer loop
      vertex -35 -12.0441 2.1
      vertex -35 -12.1 0
      vertex -35 -12.1 2.1
    endloop
  endfacet
  facet normal 1 -0 0
    outer loop
      vertex -35 -13.5 2.1
      vertex -35 -13.4616 0
      vertex -35 -13.4616 2.1
    endloop
  endfacet
  facet normal 1 0 0
    outer loop
      vertex -35 -13.4616 0
      vertex -35 -13.5 2.1
      vertex -35 -13.5 0
    endloop
  endfacet
  facet normal -0.484809 -0.87462 4.51275e-007
    outer loop
      vertex -42 -13.5 0
      vertex -42.2685 -13.3512 2.1
      vertex -44 -12.3914 1.79469
    endloop
  endfacet
  facet normal -0.48481 -0.87462 0
    outer loop
      vertex -42 -13.5 0
      vertex -44 -12.3914 1.79469
      vertex -44 -12.3914 0
    endloop
  endfacet
  facet normal -0.484812 -0.874618 0
    outer loop
      vertex -42.2685 -13.3512 2.1
      vertex -42 -13.5 0
      vertex -42 -13.5 2.1
    endloop
  endfacet
  facet normal 0.173648 -0.984808 0
    outer loop
      vertex -35.2424 -12.0868 0
      vertex -35 -12.0441 2.1
      vertex -35.2424 -12.0868 2.1
    endloop
  endfacet
  facet normal 0.173648 -0.984808 0
    outer loop
      vertex -35 -12.0441 2.1
      vertex -35.2424 -12.0868 0
      vertex -35 -12.0441 0
    endloop
  endfacet
  facet normal 0.984808 0.173647 0
    outer loop
      vertex -35 -13.4616 2.1
      vertex -35.2424 -12.0868 0
      vertex -35.2424 -12.0868 2.1
    endloop
  endfacet
  facet normal 0.984808 0.173647 0
    outer loop
      vertex -35.2424 -12.0868 0
      vertex -35 -13.4616 2.1
      vertex -35 -13.4616 0
    endloop
  endfacet
  facet normal 0 -1 0
    outer loop
      vertex -35 -12.1 0
      vertex -23 -12.1 2.1
      vertex -35 -12.1 2.1
    endloop
  endfacet
  facet normal 0 -1 -0
    outer loop
      vertex -23 -12.1 2.1
      vertex -35 -12.1 0
      vertex -23 -12.1 0
    endloop
  endfacet
  facet normal -1 0 0
    outer loop
      vertex -23 -9.1 0
      vertex -23 -5.5 2.1
      vertex -23 -5.5 0
    endloop
  endfacet
  facet normal -1 -0 0
    outer loop
      vertex -23 -5.5 2.1
      vertex -23 -9.1 0
      vertex -23 -9.1 2.1
    endloop
  endfacet
  facet normal -1 0 0
    outer loop
      vertex -23 -14.1 0
      vertex -23 -12.1 2.1
      vertex -23 -12.1 0
    endloop
  endfacet
  facet normal -1 -0 0
    outer loop
      vertex -23 -12.1 2.1
      vertex -23 -14.1 0
      vertex -23 -14.1 2.1
    endloop
  endfacet
  facet normal -0.707107 0.707107 0
    outer loop
      vertex -24.4284 -10.5 0
      vertex -23.0142 -9.08579 2.1
      vertex -23.0142 -9.08579 0
    endloop
  endfacet
  facet normal -0.707107 0.707107 0
    outer loop
      vertex -23.0142 -9.08579 2.1
      vertex -24.4284 -10.5 0
      vertex -24.4284 -10.5 2.1
    endloop
  endfacet
  facet normal 0.707107 0.707107 0
    outer loop
      vertex -23 -9.1 2.1
      vertex -23.0142 -9.08579 0
      vertex -23.0142 -9.08579 2.1
    endloop
  endfacet
  facet normal 0.707107 0.707107 0
    outer loop
      vertex -23.0142 -9.08579 0
      vertex -23 -9.1 2.1
      vertex -23 -9.1 0
    endloop
  endfacet
  facet normal 0 -1 0
    outer loop
      vertex -40 -5.5 0
      vertex -23 -5.5 2.1
      vertex -40 -5.5 2.1
    endloop
  endfacet
  facet normal 0 -1 -0
    outer loop
      vertex -23 -5.5 2.1
      vertex -40 -5.5 0
      vertex -23 -5.5 0
    endloop
  endfacet
  facet normal -0.34202 -0.939693 0
    outer loop
      vertex -43.5 -4.2261 0
      vertex -42.2685 -4.67433 2.1
      vertex -43.5 -4.2261 1.88286
    endloop
  endfacet
  facet normal -0.34202 -0.939693 3.50738e-007
    outer loop
      vertex -42.2685 -4.67433 2.1
      vertex -43.5 -4.2261 0
      vertex -40 -5.5 0
    endloop
  endfacet
  facet normal -0.342021 -0.939692 0
    outer loop
      vertex -42.2685 -4.67433 2.1
      vertex -40 -5.5 0
      vertex -40 -5.5 2.1
    endloop
  endfacet
  facet normal 0 -1 0
    outer loop
      vertex -23 -14.1 2.1
      vertex -12.6 -14.1 0.9
      vertex -12.6 -14.1 2.1
    endloop
  endfacet
  facet normal 0 -1 0
    outer loop
      vertex -10.6 -14.1 0
      vertex -12.6 -14.1 0.9
      vertex -23 -14.1 0
    endloop
  endfacet
  facet normal 0 -1 0
    outer loop
      vertex -23 -14.1 0
      vertex -12.6 -14.1 0.9
      vertex -23 -14.1 2.1
    endloop
  endfacet
  facet normal 0 -1 0
    outer loop
      vertex -12.6 -14.1 2.1
      vertex -23 -14.1 3.7
      vertex -23 -14.1 2.1
    endloop
  endfacet
  facet normal 0 -1 0
    outer loop
      vertex -23 -14.1 3.7
      vertex -12.6 -14.1 2.1
      vertex -10.6 -14.1 3.7
    endloop
  endfacet
  facet normal 0 -1 0
    outer loop
      vertex -11.4 -14.1 2.1
      vertex -10.6 -14.1 3.7
      vertex -12.6 -14.1 2.1
    endloop
  endfacet
  facet normal 0 -1 0
    outer loop
      vertex -10.6 -14.1 0
      vertex -11.4 -14.1 2.1
      vertex -11.4 -14.1 0.9
    endloop
  endfacet
  facet normal 0 -1 0
    outer loop
      vertex -11.4 -14.1 2.1
      vertex -10.6 -14.1 0
      vertex -10.6 -14.1 3.7
    endloop
  endfacet
  facet normal 0 -1 0
    outer loop
      vertex -12.6 -14.1 0.9
      vertex -10.6 -14.1 0
      vertex -11.4 -14.1 0.9
    endloop
  endfacet
  facet normal 1 -0 0
    outer loop
      vertex -10 -13.5 3.7
      vertex -10 -8.5 0
      vertex -10 -8.5 3.7
    endloop
  endfacet
  facet normal 1 0 0
    outer loop
      vertex -10 -8.5 0
      vertex -10 -13.5 3.7
      vertex -10 -13.5 0
    endloop
  endfacet
  facet normal -0.173648 0 0.984808
    outer loop
      vertex -44 -12.3914 1.79469
      vertex -42.2685 -10.5 2.1
      vertex -44 -10.5 1.79469
    endloop
  endfacet
  facet normal -0.173648 0 0.984808
    outer loop
      vertex -42.2685 -10.5 2.1
      vertex -44 -12.3914 1.79469
      vertex -42.2685 -13.3512 2.1
    endloop
  endfacet
  facet normal -0 0 1
    outer loop
      vertex -42.2685 -10.5 2.1
      vertex -35 -12.0441 2.1
      vertex -24.4284 -10.5 2.1
    endloop
  endfacet
  facet normal 0 0 1
    outer loop
      vertex -42.2685 -10.5 2.1
      vertex -35.2424 -12.0868 2.1
      vertex -35 -12.0441 2.1
    endloop
  endfacet
  facet normal 0 0 1
    outer loop
      vertex -42.2685 -10.5 2.1
      vertex -42 -13.5 2.1
      vertex -35.2424 -12.0868 2.1
    endloop
  endfacet
  facet normal 0 0 1
    outer loop
      vertex -42 -13.5 2.1
      vertex -42.2685 -10.5 2.1
      vertex -42.2685 -13.3512 2.1
    endloop
  endfacet
  facet normal 0 0 1
    outer loop
      vertex -24.4284 -10.5 2.1
      vertex -23 -9.1 2.1
      vertex -23.0142 -9.08579 2.1
    endloop
  endfacet
  facet normal 0 0 1
    outer loop
      vertex -23 -9.1 2.1
      vertex -24.4284 -10.5 2.1
      vertex -23 -12.1 2.1
    endloop
  endfacet
  facet normal 0 0 1
    outer loop
      vertex -35 -12.1 2.1
      vertex -24.4284 -10.5 2.1
      vertex -35 -12.0441 2.1
    endloop
  endfacet
  facet normal 0 0 1
    outer loop
      vertex -24.4284 -10.5 2.1
      vertex -35 -12.1 2.1
      vertex -23 -12.1 2.1
    endloop
  endfacet
  facet normal 0 0 1
    outer loop
      vertex -42 -13.5 2.1
      vertex -35 -13.4616 2.1
      vertex -35.2424 -12.0868 2.1
    endloop
  endfacet
  facet normal 0 0 1
    outer loop
      vertex -35 -13.4616 2.1
      vertex -42 -13.5 2.1
      vertex -35 -13.5 2.1
    endloop
  endfacet
  facet normal 0.707107 -0.707107 0
    outer loop
      vertex -10.6 -14.1 3.7
      vertex -10 -13.5 0
      vertex -10 -13.5 3.7
    endloop
  endfacet
  facet normal 0.707107 -0.707107 0
    outer loop
      vertex -10 -13.5 0
      vertex -10.6 -14.1 3.7
      vertex -10.6 -14.1 0
    endloop
  endfacet
  facet normal 0 1 0
    outer loop
      vertex -12.6 -8.5 2.1
      vertex -10 -8.5 3.7
      vertex -11.4 -8.5 2.1
    endloop
  endfacet
  facet normal 0 1 -0
    outer loop
      vertex -10 -8.5 0
      vertex -11.4 -8.5 2.1
      vertex -10 -8.5 3.7
    endloop
  endfacet
  facet normal 0 1 0
    outer loop
      vertex -11.4 -8.5 0.9
      vertex -10 -8.5 0
      vertex -12.6 -8.5 0.9
    endloop
  endfacet
  facet normal 0 1 0
    outer loop
      vertex -11.4 -8.5 2.1
      vertex -10 -8.5 0
      vertex -11.4 -8.5 0.9
    endloop
  endfacet
  facet normal 0 1 0
    outer loop
      vertex -10 -8.5 3.7
      vertex -12.6 -8.5 2.1
      vertex -15 -8.5 3.7
    endloop
  endfacet
  facet normal 0 1 0
    outer loop
      vertex -15 -8.5 0
      vertex -12.6 -8.5 2.1
      vertex -12.6 -8.5 0.9
    endloop
  endfacet
  facet normal 0 1 0
    outer loop
      vertex -12.6 -8.5 2.1
      vertex -15 -8.5 0
      vertex -15 -8.5 3.7
    endloop
  endfacet
  facet normal 0 1 0
    outer loop
      vertex -15 -8.5 0
      vertex -12.6 -8.5 0.9
      vertex -10 -8.5 0
    endloop
  endfacet
  facet normal 0 0 -1
    outer loop
      vertex -12.6 -14.1 2.1
      vertex -11.4 -8.5 2.1
      vertex -11.4 -14.1 2.1
    endloop
  endfacet
  facet normal -0 0 -1
    outer loop
      vertex -11.4 -8.5 2.1
      vertex -12.6 -14.1 2.1
      vertex -12.6 -8.5 2.1
    endloop
  endfacet
  facet normal 1 -0 0
    outer loop
      vertex -12.6 -14.1 2.1
      vertex -12.6 -8.5 0.9
      vertex -12.6 -8.5 2.1
    endloop
  endfacet
  facet normal 1 0 0
    outer loop
      vertex -12.6 -8.5 0.9
      vertex -12.6 -14.1 2.1
      vertex -12.6 -14.1 0.9
    endloop
  endfacet
  facet normal -0 0 1
    outer loop
      vertex -12.6 -8.5 0.9
      vertex -11.4 -14.1 0.9
      vertex -11.4 -8.5 0.9
    endloop
  endfacet
  facet normal 0 0 1
    outer loop
      vertex -11.4 -14.1 0.9
      vertex -12.6 -8.5 0.9
      vertex -12.6 -14.1 0.9
    endloop
  endfacet
  facet normal -1 0 0
    outer loop
      vertex -11.4 -14.1 0.9
      vertex -11.4 -8.5 2.1
      vertex -11.4 -8.5 0.9
    endloop
  endfacet
  facet normal -1 -0 0
    outer loop
      vertex -11.4 -8.5 2.1
      vertex -11.4 -14.1 0.9
      vertex -11.4 -14.1 2.1
    endloop
  endfacet
endsolid OpenSCAD_Model
